<?xml version="1.0" encoding="UTF-8"?>
<svg width="21px" height="21px" viewBox="0 0 21 21" version="1.1" xmlns="http://www.w3.org/2000/svg" xmlns:xlink="http://www.w3.org/1999/xlink">
    <path d="M10,4.01894482 C6.64377614,4.27425725 4,7.07838512 4,10.5 C4,11.912062 4.45026683,13.2189585 5.21505544,14.2849446 L6.65719942,12.8428006 C6.24026378,12.1603783 6,11.3582474 6,10.5 C6,8.18372317 7.75002477,6.27618653 10,6.02746439 L10,9 L14,5 L10,1 L10,4.01894482 Z M11,16.9810552 C14.3562239,16.7257427 17,13.9216149 17,10.5 C17,9.087938 16.5497332,7.78104146 15.7849446,6.71505544 L14.3428006,8.15719942 C14.7597362,8.83962172 15,9.64175255 15,10.5 C15,12.8162768 13.2499752,14.7238135 11,14.9725356 L11,12 L7,16 L11,20 L11,16.9810552 Z"
        fill="#000000" fill-rule="evenodd"
        stroke-width="2"
        stroke="black"
        opacity="0.2">
    </path>
    <path d="M10,4.01894482 C6.64377614,4.27425725 4,7.07838512 4,10.5 C4,11.912062 4.45026683,13.2189585 5.21505544,14.2849446 L6.65719942,12.8428006 C6.24026378,12.1603783 6,11.3582474 6,10.5 C6,8.18372317 7.75002477,6.27618653 10,6.02746439 L10,9 L14,5 L10,1 L10,4.01894482 Z M11,16.9810552 C14.3562239,16.7257427 17,13.9216149 17,10.5 C17,9.087938 16.5497332,7.78104146 15.7849446,6.71505544 L14.3428006,8.15719942 C14.7597362,8.83962172 15,9.64175255 15,10.5 C15,12.8162768 13.2499752,14.7238135 11,14.9725356 L11,12 L7,16 L11,20 L11,16.9810552 Z"
        fill="#FFFFFF" fill-rule="evenodd">
    </path>
</svg>
